<?xml version="1.0" encoding="iso-8859-1"?>
<!-- Generator: Adobe Illustrator 19.0.0, SVG Export Plug-In . SVG Version: 6.00 Build 0)  -->
<svg version="1.1" id="Capa_1" xmlns="http://www.w3.org/2000/svg" xmlns:xlink="http://www.w3.org/1999/xlink" x="0px" y="0px"
	 viewBox="0 0 512 512" style="enable-background:new 0 0 512 512;" xml:space="preserve">
<path style="fill:#78A7AF;" d="M60.53,476.772V494.5c0,5.5,4.5,10,10,10h370.939c5.5,0,10-4.5,10-10v-17.728H60.53z"/>
<path style="opacity:0.1;enable-background:new    ;" d="M93.059,494.5v-17.728h-32.53V494.5c0,5.5,4.5,10,10,10h32.53
	C97.559,504.5,93.059,500,93.059,494.5z"/>
<path style="fill:#E6E9ED;" d="M467.905,466.772c0,5.5-4.5,10-10,10H54.093c-5.5,0-10-4.5-10-10V17.5c0-5.5,4.5-10,10-10h403.813
	c5.5,0,10,4.5,10,10L467.905,466.772L467.905,466.772z"/>
<g style="opacity:0.1;">
	<path d="M71.186,466.772V17.5c0-5.5,4.5-10,10-10H54.093c-5.5,0-10,4.5-10,10v449.272c0,5.5,4.5,10,10,10h27.094
		C75.686,476.772,71.186,472.272,71.186,466.772z"/>
</g>
<rect x="109.289" y="183.25" style="fill:#08375E;" width="293.42" height="166.1"/>
<rect x="109.289" y="349.35" style="fill:#ABCCD3;" width="293.42" height="47.37"/>
<g>
	<path style="fill:#78A7AF;" d="M414.878,183.253h-12.171v213.475h12.171c6.695,0,12.175-5.438,12.175-12.085V195.338
		C427.053,188.691,421.573,183.253,414.878,183.253z"/>
	<path style="fill:#78A7AF;" d="M109.291,183.253h-12.17c-6.696,0-12.175,5.439-12.175,12.085v189.305
		c0,6.646,5.479,12.085,12.175,12.085h12.17V183.253z"/>
	<path style="fill:#78A7AF;" d="M183.768,108.924l15.513,25.471c1.731,2.845,5.888,5.172,9.236,5.172h94.965
		c3.348,0,7.505-2.327,9.237-5.172l15.511-25.471H183.768z"/>
</g>
<rect x="44.089" y="49.983" style="fill:#FFBB4A;" width="423.81" height="58.94"/>
<path style="fill:#FFFFFF;" d="M169.076,282.504h173.848l7.813-18.884c1.052-2.541-0.338-4.62-3.088-4.62H164.352
	c-2.75,0-4.14,2.079-3.088,4.62L169.076,282.504z"/>
<path style="opacity:0.1;enable-background:new    ;" d="M169.076,282.504h21.912l-7.813-18.884c-1.051-2.541,0.338-4.62,3.088-4.62
	H164.35c-2.75,0-4.14,2.079-3.088,4.62L169.076,282.504z"/>
<path style="fill:#E6E9ED;" d="M171.078,310.85H340.92l9.815-23.726c1.052-2.541-0.338-4.62-3.088-4.62H164.352
	c-2.75,0-4.14,2.079-3.088,4.62L171.078,310.85z"/>
<path style="opacity:0.1;enable-background:new    ;" d="M171.078,310.85h21.912l-9.816-23.726c-1.051-2.541,0.338-4.62,3.088-4.62
	H164.35c-2.75,0-4.14,2.079-3.088,4.62L171.078,310.85z"/>
<path style="fill:#FFFFFF;" d="M338.628,344.732c-1.052,2.541-4.162,4.62-6.912,4.62H180.283c-2.75,0-5.86-2.079-6.912-4.62
	l-12.108-29.263c-1.051-2.541,0.338-4.62,3.088-4.62h183.297c2.75,0,4.14,2.079,3.088,4.62L338.628,344.732z"/>
<g style="opacity:0.1;">
	<path d="M195.283,344.732l-12.108-29.263c-1.051-2.541,0.338-4.62,3.088-4.62H164.35c-2.75,0-4.14,2.079-3.088,4.62l12.108,29.263
		c1.051,2.541,4.162,4.62,6.912,4.62h21.912C199.445,349.353,196.333,347.273,195.283,344.732z"/>
</g>
<path style="fill:#3EAF91;" d="M382.005,443.606c0,2.75,2.25,5,5,5h35.048c2.75,0,5-2.25,5-5v-15.379c0-2.75-2.25-5-5-5h-35.048
	c-2.75,0-5,2.25-5,5V443.606z"/>
<path d="M457.905,0H54.093c-9.649,0-17.5,7.851-17.5,17.5v32.483v58.94v357.849c0,9.29,7.283,16.892,16.437,17.446V494.5
	c0,9.649,7.851,17.5,17.5,17.5h370.939c9.649,0,17.5-7.851,17.5-17.5v-10.281c9.153-0.555,16.437-8.156,16.437-17.446V218
	c0-4.143-3.357-7.5-7.5-7.5s-7.5,3.357-7.5,7.5v248.772c0,1.355-1.145,2.5-2.5,2.5H54.093c-1.355,0-2.5-1.145-2.5-2.5V116.424
	h127.961l13.319,21.87c3.094,5.083,9.673,8.773,15.643,8.773h94.965c5.969,0,12.548-3.689,15.643-8.771l13.318-21.871h127.963V179
	c0,4.143,3.357,7.5,7.5,7.5s7.5-3.357,7.5-7.5v-70.076v-58.94V17.5C475.405,7.851,467.555,0,457.905,0z M441.469,497H70.53
	c-1.355,0-2.5-1.145-2.5-2.5v-10.228h375.939V494.5C443.969,495.855,442.824,497,441.469,497z M54.093,15h403.813
	c1.355,0,2.5,1.145,2.5,2.5v24.983H51.593V17.5C51.593,16.145,52.738,15,54.093,15z M304.999,101.424c-4.143,0-7.5,3.358-7.5,7.5
	c0,4.143,3.357,7.5,7.5,7.5h9.882l-8.564,14.064c-0.423,0.646-2.065,1.559-2.835,1.578h-94.961
	c-0.771-0.018-2.414-0.932-2.835-1.573l-8.569-14.069h63.882c4.143,0,7.5-3.357,7.5-7.5c0-4.142-3.357-7.5-7.5-7.5H51.593v-43.94
	h408.813v43.94C460.406,101.424,304.999,101.424,304.999,101.424z"/>
<path d="M434.553,195.338c0-10.799-8.826-19.585-19.675-19.585H97.121c-10.849,0-19.675,8.786-19.675,19.585v189.305
	c0,10.799,8.826,19.585,19.675,19.585h230.878c4.143,0,7.5-3.357,7.5-7.5s-3.357-7.5-7.5-7.5H116.791v-32.375h278.416v32.375
	h-27.208c-4.143,0-7.5,3.357-7.5,7.5s3.357,7.5,7.5,7.5h46.879c10.849,0,19.675-8.786,19.675-19.585V195.338z M97.121,389.228
	c-2.534,0-4.675-2.1-4.675-4.585V195.338c0-2.485,2.141-4.585,4.675-4.585h4.67v198.475H97.121z M170.57,266.5h170.857l-3.518,8.504
	h-163.82L170.57,266.5z M176.092,303.35l-5.521-13.346h170.857l-5.521,13.346H176.092z M180.21,341.648l-9.64-23.299h170.856
	l-9.639,23.298c-0.083,0.073-0.208,0.157-0.307,0.205H180.518C180.417,341.805,180.292,341.722,180.21,341.648z M381.027,341.853
	V336c0-4.143-3.357-7.5-7.5-7.5s-7.5,3.357-7.5,7.5v5.853h-18.091l9.728-23.515c1.476-3.564,1.18-7.318-0.813-10.299
	c-1.225-1.832-2.967-3.178-5.021-3.947l5.833-14.1c1.476-3.564,1.18-7.318-0.813-10.299c-0.875-1.309-2.024-2.355-3.353-3.138
	l4.165-10.067c1.476-3.565,1.18-7.318-0.813-10.299c-1.992-2.981-5.347-4.69-9.205-4.69H164.352c-3.858,0-7.213,1.709-9.205,4.69
	c-1.992,2.979-2.289,6.733-0.814,10.298l4.166,10.069c-1.328,0.781-2.478,1.828-3.352,3.137c-1.992,2.98-2.289,6.733-0.814,10.298
	l5.834,14.101c-2.054,0.77-3.796,2.115-5.02,3.947c-1.992,2.979-2.289,6.733-0.814,10.298l9.73,23.516h-20.527V336
	c0-4.143-3.358-7.5-7.5-7.5s-7.5,3.357-7.5,7.5v5.853h-11.744v-151.1h11.744V200c0,4.143,3.358,7.5,7.5,7.5s7.5-3.357,7.5-7.5
	v-9.247h32.499V200c0,4.143,3.358,7.5,7.5,7.5s7.5-3.357,7.5-7.5v-9.247h32.499V200c0,4.143,3.358,7.5,7.5,7.5s7.5-3.357,7.5-7.5
	v-9.247h32.499V200c0,4.143,3.357,7.5,7.5,7.5s7.5-3.357,7.5-7.5v-9.247h32.497V200c0,4.143,3.357,7.5,7.5,7.5s7.5-3.357,7.5-7.5
	v-9.247h32.499V200c0,4.143,3.357,7.5,7.5,7.5s7.5-3.357,7.5-7.5v-9.247h14.18v151.1L381.027,341.853L381.027,341.853z
	 M419.553,384.643c0,2.485-2.141,4.585-4.675,4.585h-4.671V190.753h4.671c2.534,0,4.675,2.1,4.675,4.585V384.643z"/>
<path d="M381.398,71.95c-1.97,0-3.909,0.8-5.3,2.199c-1.399,1.391-2.2,3.33-2.2,5.301c0,1.979,0.801,3.909,2.2,5.31
	c1.4,1.39,3.33,2.19,5.3,2.19c1.971,0,3.91-0.801,5.311-2.19c1.39-1.4,2.189-3.33,2.189-5.31c0-1.971-0.8-3.9-2.189-5.301
	C385.309,72.75,383.379,71.95,381.398,71.95z"/>
<path d="M404.529,71.95c-1.971,0-3.91,0.8-5.301,2.199c-1.399,1.4-2.199,3.33-2.199,5.301c0,1.979,0.8,3.909,2.199,5.31
	c1.4,1.39,3.33,2.19,5.301,2.19c1.979,0,3.909-0.801,5.309-2.19c1.39-1.4,2.191-3.33,2.191-5.31c0-1.971-0.801-3.9-2.191-5.301
	C408.438,72.75,406.509,71.95,404.529,71.95z"/>
<path d="M427.669,71.95c-1.98,0-3.91,0.8-5.311,2.199c-1.39,1.4-2.189,3.33-2.189,5.301c0,1.979,0.8,3.909,2.189,5.31
	c1.4,1.39,3.33,2.19,5.311,2.19c1.97,0,3.899-0.801,5.3-2.19c1.4-1.4,2.2-3.33,2.2-5.31c0-1.971-0.8-3.9-2.2-5.301
	C431.579,72.75,429.639,71.95,427.669,71.95z"/>
<path d="M115.987,72.511H79.462c-4.142,0-7.5,3.358-7.5,7.5c0,4.143,3.358,7.5,7.5,7.5h36.525c4.142,0,7.5-3.357,7.5-7.5
	C123.487,75.868,120.129,72.511,115.987,72.511z"/>
<path d="M198.777,429.022c-4.142,0-7.5,3.357-7.5,7.5s3.358,7.5,7.5,7.5h114.445c4.143,0,7.5-3.357,7.5-7.5s-3.357-7.5-7.5-7.5
	H198.777z"/>
<path d="M136.035,291.5c-4.142,0-7.5,3.357-7.5,7.5v12c0,4.143,3.358,7.5,7.5,7.5s7.5-3.357,7.5-7.5v-12
	C143.535,294.857,140.177,291.5,136.035,291.5z"/>
<path d="M136.035,254.5c-4.142,0-7.5,3.357-7.5,7.5v12c0,4.143,3.358,7.5,7.5,7.5s7.5-3.357,7.5-7.5v-12
	C143.535,257.857,140.177,254.5,136.035,254.5z"/>
<path d="M136.035,217.5c-4.142,0-7.5,3.357-7.5,7.5v12c0,4.143,3.358,7.5,7.5,7.5s7.5-3.357,7.5-7.5v-12
	C143.535,220.857,140.177,217.5,136.035,217.5z"/>
<path d="M183.535,217.5c-4.142,0-7.5,3.357-7.5,7.5v12c0,4.143,3.358,7.5,7.5,7.5s7.5-3.357,7.5-7.5v-12
	C191.035,220.857,187.676,217.5,183.535,217.5z"/>
<path d="M231.033,217.5c-4.142,0-7.5,3.357-7.5,7.5v12c0,4.143,3.358,7.5,7.5,7.5s7.5-3.357,7.5-7.5v-12
	C238.533,220.857,235.174,217.5,231.033,217.5z"/>
<path d="M278.531,217.5c-4.143,0-7.5,3.357-7.5,7.5v12c0,4.143,3.357,7.5,7.5,7.5s7.5-3.357,7.5-7.5v-12
	C286.031,220.857,282.674,217.5,278.531,217.5z"/>
<path d="M326.028,217.5c-4.143,0-7.5,3.357-7.5,7.5v12c0,4.143,3.357,7.5,7.5,7.5s7.5-3.357,7.5-7.5v-12
	C333.528,220.857,330.171,217.5,326.028,217.5z"/>
<path d="M373.527,254.5c-4.143,0-7.5,3.357-7.5,7.5v12c0,4.143,3.357,7.5,7.5,7.5s7.5-3.357,7.5-7.5v-12
	C381.027,257.857,377.67,254.5,373.527,254.5z"/>
<path d="M373.527,217.5c-4.143,0-7.5,3.357-7.5,7.5v12c0,4.143,3.357,7.5,7.5,7.5s7.5-3.357,7.5-7.5v-12
	C381.027,220.857,377.67,217.5,373.527,217.5z"/>
<path d="M373.527,291.5c-4.143,0-7.5,3.357-7.5,7.5v12c0,4.143,3.357,7.5,7.5,7.5s7.5-3.357,7.5-7.5v-12
	C381.027,294.857,377.67,291.5,373.527,291.5z"/>
<path d="M387.005,415.728c-6.893,0-12.5,5.607-12.5,12.5v15.379c0,6.893,5.607,12.5,12.5,12.5h35.048c6.893,0,12.5-5.607,12.5-12.5
	v-15.379c0-6.893-5.607-12.5-12.5-12.5H387.005z M419.553,441.106h-30.048v-10.379h30.048V441.106z"/>
<g>
</g>
<g>
</g>
<g>
</g>
<g>
</g>
<g>
</g>
<g>
</g>
<g>
</g>
<g>
</g>
<g>
</g>
<g>
</g>
<g>
</g>
<g>
</g>
<g>
</g>
<g>
</g>
<g>
</g>
</svg>
